<svg xmlns="http://www.w3.org/2000/svg" width="1400" height="900" viewBox="0 0 1400 900">
  <rect width="1400" height="900" fill="#e8ebe7"/><rect x="55" y="48" width="1290" height="804" rx="10" fill="#fbfcfa" stroke="#cbd4ce"/><rect x="55" y="48" width="930" height="804" fill="#f8faf7"/><rect x="55" y="48" width="930" height="48" fill="#f4f6f3"/><circle cx="82" cy="72" r="6" fill="#df7c6f"/><circle cx="101" cy="72" r="6" fill="#d8b35d"/><circle cx="120" cy="72" r="6" fill="#77ae88"/><rect x="245" y="61" width="570" height="24" rx="5" fill="#fff" stroke="#d7dfd8"/><text x="530" y="78" text-anchor="middle" font-family="Arial" font-size="12" fill="#78827c">thepaper.cn / insight / reading-space</text><rect x="260" y="240" width="550" height="28" rx="4" fill="#35423b"/><rect x="260" y="300" width="500" height="10" rx="5" fill="#c4cec7"/><rect x="260" y="330" width="560" height="10" rx="5" fill="#c4cec7"/>
  <rect x="1015" y="94" width="300" height="510" rx="7" fill="#fffdf9" stroke="#ccd4ce" filter="drop-shadow(0 14px 28px #253b331f)"/><text x="1038" y="133" font-family="Arial" font-size="18" font-weight="700" fill="#21463f">舒适排版</text><rect x="1254" y="116" width="38" height="19" rx="10" fill="#1f8b7d"/><circle cx="1281" cy="125" r="7" fill="#fff"/><line x1="1038" y1="151" x2="1292" y2="151" stroke="#e7ece7"/>
  <text x="1038" y="180" font-family="Arial" font-size="10" fill="#68746d">字号</text><rect x="1152" y="166" width="24" height="24" rx="3" fill="#f1f4f0"/><text x="1164" y="183" text-anchor="middle" font-family="Arial" font-size="14" fill="#237f72">−</text><rect x="1181" y="166" width="63" height="24" rx="3" fill="#fff" stroke="#cbd6cf"/><text x="1212" y="182" text-anchor="middle" font-family="Arial" font-size="10" fill="#34423a">18 px</text><rect x="1249" y="166" width="24" height="24" rx="3" fill="#f1f4f0"/><text x="1261" y="183" text-anchor="middle" font-family="Arial" font-size="14" fill="#237f72">＋</text>
  <text x="1038" y="220" font-family="Arial" font-size="10" fill="#68746d">行距</text><rect x="1152" y="206" width="24" height="24" rx="3" fill="#f1f4f0"/><text x="1164" y="223" text-anchor="middle" font-family="Arial" font-size="14" fill="#237f72">−</text><rect x="1181" y="206" width="63" height="24" rx="3" fill="#fff" stroke="#cbd6cf"/><text x="1212" y="222" text-anchor="middle" font-family="Arial" font-size="10" fill="#34423a">1.7</text><rect x="1249" y="206" width="24" height="24" rx="3" fill="#f1f4f0"/><text x="1261" y="223" text-anchor="middle" font-family="Arial" font-size="14" fill="#237f72">＋</text>
  <text x="1038" y="260" font-family="Arial" font-size="10" fill="#68746d">段落间距</text><rect x="1152" y="246" width="24" height="24" rx="3" fill="#f1f4f0"/><text x="1164" y="263" text-anchor="middle" font-family="Arial" font-size="14" fill="#237f72">−</text><rect x="1181" y="246" width="63" height="24" rx="3" fill="#fff" stroke="#cbd6cf"/><text x="1212" y="262" text-anchor="middle" font-family="Arial" font-size="10" fill="#34423a">18 px</text><rect x="1249" y="246" width="24" height="24" rx="3" fill="#f1f4f0"/><text x="1261" y="263" text-anchor="middle" font-family="Arial" font-size="14" fill="#237f72">＋</text>
  <text x="1038" y="300" font-family="Arial" font-size="10" fill="#68746d">字体</text><rect x="1152" y="284" width="121" height="24" rx="3" fill="#deeee8"/><text x="1212" y="300" text-anchor="middle" font-family="Arial" font-size="9" fill="#197a6d">清晰无衬线　⌄</text><text x="1038" y="340" font-family="Arial" font-size="10" fill="#68746d">字间距</text><rect x="1152" y="326" width="24" height="24" rx="3" fill="#f1f4f0"/><text x="1164" y="343" text-anchor="middle" font-family="Arial" font-size="14" fill="#237f72">−</text><rect x="1181" y="326" width="63" height="24" rx="3" fill="#fff" stroke="#cbd6cf"/><text x="1212" y="342" text-anchor="middle" font-family="Arial" font-size="10" fill="#34423a">0.2 px</text><rect x="1249" y="326" width="24" height="24" rx="3" fill="#f1f4f0"/><text x="1261" y="343" text-anchor="middle" font-family="Arial" font-size="14" fill="#237f72">＋</text>
  <text x="1038" y="380" font-family="Arial" font-size="10" fill="#68746d">页面底色</text><rect x="1152" y="366" width="24" height="24" rx="3" fill="#fbfcfa" stroke="#aebbb3"/><rect x="1181" y="366" width="24" height="24" rx="3" fill="#f7f7f3" stroke="#237f72" stroke-width="2"/><rect x="1210" y="366" width="24" height="24" rx="3" fill="#20211f"/><rect x="1243" y="366" width="30" height="24" rx="3" fill="#fff" stroke="#cbd6cf"/><text x="1258" y="383" text-anchor="middle" font-family="Arial" font-size="14" fill="#237f72">＋</text><text x="1038" y="420" font-family="Arial" font-size="9" fill="#7b8680">自定义颜色　·　打开调色盘</text>
</svg>
