<svg xmlns="http://www.w3.org/2000/svg" width="1400" height="900" viewBox="0 0 1400 900">
  <rect width="1400" height="900" fill="#e8ebe7"/><rect x="55" y="48" width="1290" height="804" rx="10" fill="#fbfcfa" stroke="#cbd4ce"/><rect x="55" y="48" width="930" height="804" fill="#f8faf7"/><rect x="55" y="48" width="930" height="48" fill="#f4f6f3"/><circle cx="82" cy="72" r="6" fill="#df7c6f"/><circle cx="101" cy="72" r="6" fill="#d8b35c"/><circle cx="120" cy="72" r="6" fill="#77ae88"/><rect x="245" y="61" width="570" height="24" rx="5" fill="#fff" stroke="#d7dfd8"/><text x="530" y="78" text-anchor="middle" font-family="Arial" font-size="12" fill="#78827c">thepaper.cn / insight / reading-space</text>
  <rect x="210" y="122" width="700" height="110" rx="8" fill="#eaf5f0" stroke="#b8d9cd"/><text x="238" y="153" font-family="Arial" font-size="12" font-weight="600" fill="#246d62">AI 摘要</text><text x="238" y="181" font-family="Arial" font-size="12" fill="#4e675d">好的阅读环境不替人做决定，而是减少噪音，保留恢复原貌的权利。</text><text x="238" y="207" font-family="Arial" font-size="10" fill="#7a9187">基于当前文章生成 · 查看原文　×</text>
  <rect x="260" y="276" width="550" height="30" rx="4" fill="#35423b"/><rect x="260" y="330" width="500" height="10" rx="5" fill="#c4cec7"/><rect x="260" y="360" width="560" height="10" rx="5" fill="#c4cec7"/><rect x="260" y="414" width="590" height="10" rx="5" fill="#c4cec7"/><rect x="260" y="444" width="510" height="10" rx="5" fill="#c4cec7"/>
  <rect x="975" y="48" width="370" height="804" fill="#fffdf9" stroke="#ccd4ce"/><text x="1008" y="95" font-family="Arial" font-size="20" font-weight="700" fill="#21463f">AI 内容助手</text><rect x="1275" y="78" width="39" height="21" rx="11" fill="#1f8b7d"/><circle cx="1303" cy="88" r="7" fill="#fff"/><line x1="1008" y1="126" x2="1315" y2="126" stroke="#e7ece7"/>
  <text x="1008" y="164" font-family="Arial" font-size="12" font-weight="600" fill="#246d62">AI 摘要</text><text x="1008" y="185" font-family="Arial" font-size="10" fill="#7b8680">在网页顶部生成一段可收起的摘要</text><rect x="1275" y="153" width="39" height="21" rx="11" fill="#1f8b7d"/><circle cx="1303" cy="163" r="7" fill="#fff"/>
  <line x1="1008" y1="210" x2="1315" y2="210" stroke="#e7ece7"/><text x="1008" y="244" font-family="Arial" font-size="12" fill="#4d5c53">拆分长段落</text><rect x="1275" y="231" width="39" height="21" rx="11" fill="#1f8b7d"/><circle cx="1303" cy="241" r="7" fill="#fff"/>
  <text x="1008" y="286" font-family="Arial" font-size="12" fill="#4d5c53">简化复杂长句</text><rect x="1275" y="273" width="39" height="21" rx="11" fill="#c8d0ca"/><circle cx="1284" cy="283" r="7" fill="#fff"/>
  <text x="1008" y="328" font-family="Arial" font-size="12" fill="#4d5c53">标记核心信息</text><rect x="1275" y="315" width="39" height="21" rx="11" fill="#1f8b7d"/><circle cx="1303" cy="325" r="7" fill="#fff"/>
  <text x="1008" y="378" font-family="Arial" font-size="11" fill="#68746d">内容版本</text><rect x="1154" y="358" width="160" height="30" rx="4" fill="#edf1ed"/><rect x="1232" y="360" width="80" height="26" rx="3" fill="#fff"/><text x="1178" y="378" text-anchor="middle" font-family="Arial" font-size="10" fill="#65716a">原文</text><text x="1272" y="378" text-anchor="middle" font-family="Arial" font-size="10" font-weight="600" fill="#197a6d">缓读版</text>
  <rect x="1008" y="435" width="307" height="70" rx="5" fill="#fff6ef" stroke="#edcfbf"/><text x="1026" y="462" font-family="Arial" font-size="10" fill="#8d6557">简化文本会发送至 AI 处理，不会改变原文。</text><text x="1026" y="487" font-family="Arial" font-size="10" fill="#197a6d">同意并开启</text><text x="1252" y="487" font-family="Arial" font-size="10" fill="#7b8680">暂不</text>
</svg>
